<svg width="56" height="56" viewBox="0 0 56 56" fill="none" xmlns="http://www.w3.org/2000/svg">
<path d="M22.7438 17.2689C22.7307 16.9003 22.3815 14.6479 22.2024 9.43719C22.1088 6.71613 23.7017 3.85849 24.2965 2.31186C24.6583 1.371 25.1324 0.740847 25.5751 0.459432C26.6409 -0.21802 27.8754 -0.026912 29.298 0.275404C31.7578 0.798126 32.6241 1.48587 33.3813 1.79822C34.3965 2.21701 36.4036 0.992114 39.7736 0.342034C40.5218 0.197692 41.0273 0.2538 41.3699 0.323393C41.9138 0.433888 42.4084 1.15964 42.97 2.01367C43.3321 2.56435 43.3174 4.30862 43.1784 7.0371C42.9748 11.0309 41.4576 13.6207 40.1499 15.7613C40.061 15.9067 39.9678 16.0514 39.8711 16.1948C41.1202 15.6532 42.3988 15.3888 43.8109 14.7749C45.2445 14.1516 47.0926 13.5363 49.7475 13.5404C50.7224 13.5419 51.2424 14.0393 51.608 14.2516C52.5323 14.7883 52.6825 16.3779 52.8506 17.4753C52.9101 17.8632 52.8729 18.4312 52.9684 18.7897C53.2283 19.7644 54.4964 19.9497 55.2226 20.4651C55.964 20.9915 55.9829 22.1616 55.9397 24.1232C55.9229 24.8872 55.3911 25.3158 54.9826 25.6197C54.2388 26.1731 53.0482 26.022 50.319 26.6134C48.5386 26.9992 47.3719 28.071 46.4375 28.5578C46.3454 28.6057 46.2566 28.655 46.1709 28.7036C46.7131 28.855 47.3529 29.1122 47.8846 29.2281C48.768 29.4206 49.6582 30.0967 50.5939 30.5815C51.8878 31.2519 53.4316 32.5256 55.1397 34.19C55.6438 34.6813 55.7676 35.2049 55.7947 35.7051C55.8399 36.5393 54.6817 37.4354 53.4189 38.3313L53.3902 38.3517C51.6162 39.6101 50.3171 40.5317 48.5937 43.8335C47.8198 45.3159 46.8195 45.5852 46.1285 46.2801C45.2784 47.135 43.6982 47.0843 42.6499 47.0703C41.9325 47.0607 41.4908 46.723 41.0639 46.2625C39.8622 44.9661 39.6433 43.6696 39.2088 42.7214C38.7096 41.6319 36.8771 40.64 35.6808 39.937C35.3115 39.72 34.9373 39.5332 34.7252 39.478C33.9342 39.2724 35.6111 41.872 36.1296 43.8796C36.8303 46.5924 37.2508 51.3593 36.9054 53.5619C36.6865 54.9573 35.3365 55.5405 34.6929 55.7334C32.4652 56.401 31.1399 55.3318 28.2274 55.3578C26.4166 55.3739 25.5064 55.6535 23.3783 55.642C22.6742 55.6382 22.2021 55.2223 21.7243 54.8564C20.9635 54.2737 21.0422 52.9204 21.2626 49.6741C21.5839 44.9402 23.483 40.8856 23.4386 40.0997C23.399 39.3974 22.0837 40.8636 21.4199 41.518C20.5524 42.3732 19.1003 43.4066 15.4452 46.369C13.4939 47.9505 10.6639 49.4267 9.22522 49.8739C8.91841 49.9693 8.47899 49.8955 8.19402 49.8206C7.23043 49.5671 6.86672 47.7726 6.37786 45.8489C5.97485 44.263 5.19728 43.3554 4.39166 42.8811C3.50031 42.3563 2.86215 42.049 2.65951 41.6013C1.61513 39.2939 5.37923 35.4863 7.0368 33.1464C8.29056 31.3766 9.32968 30.8312 10.3247 30.2543C11.1524 29.7744 12.1601 29.7042 12.8949 29.7395C12.1922 29.5347 11.2153 29.2891 9.67835 28.848C6.06544 27.8109 4.78431 26.7787 3.64883 25.8475C3.17091 25.4555 2.702 24.8466 2.29433 24.1705C1.82568 23.3933 0.891502 22.3589 0.488426 21.5887C0.00463215 20.6644 0.188323 20.8965 0.00463216 20.4333C-0.0850686 20.2071 1.15542 18.967 1.35026 18.7812C2.68897 17.5048 5.00751 16.9539 5.8174 16.278C7.13372 15.1793 6.98422 12.9254 7.27642 12.0884C7.55471 11.2912 8.85871 11.3827 10.4867 11.3849C12.1944 11.3872 13.9989 11.8638 14.9348 12.2645C16.0856 12.7571 17.8559 14.6983 19.42 15.6118C21.4141 16.8041 22.1839 17.1229 22.5947 17.2269C22.6442 17.24 22.6936 17.2533 22.7438 17.2689Z" fill="#FF9F68"/>
<path d="M25.1182 26.9015C25.166 26.7053 25.7755 26.0355 26.3694 25.4306C26.5547 24.9179 26.802 24.5921 27.2021 24.4045C27.6193 24.2089 28.1597 24.0483 28.767 24.0937C29.335 24.1361 29.8451 24.2058 30.2565 24.3404C30.6524 24.2712 31.0542 24.2801 31.4159 24.4395C31.8518 24.6316 32.2905 24.8601 32.5852 25.2297C32.8721 25.5896 33.0846 25.9539 33.0499 26.2882C33.0173 26.6019 32.9299 26.9332 32.6758 27.1963C32.3917 27.4904 32.0004 27.8698 31.3792 28.0905C29.8685 28.6272 27.1023 29.4783 26.2715 28.4383C26.0635 28.1779 25.9329 27.907 25.9337 27.5513C25.9265 27.5373 25.9204 27.5224 25.9151 27.5068C25.7946 27.476 25.6842 27.4425 25.5864 27.4059C25.2529 27.281 25.0653 27.1191 25.1182 26.9015Z" fill="#FF9F68"/>
<path d="M27.1797 24.6364C26.5295 25.2431 25.19 26.6068 25.1182 26.9015C24.9558 27.5693 27.0584 27.7121 28.6925 27.8737C29.5921 27.9627 30.684 26.7717 31.2755 25.9689C32.3389 24.5257 26.2592 25.5396 26.0343 25.8692C25.8594 26.1255 25.8659 26.6987 25.892 27.3667C25.9024 27.6312 26.0446 27.7304 26.4391 27.7858C28.481 28.0726 29.6028 27.6102 30.5 27.2737C30.8728 27.1338 31.0984 26.8493 31.2622 26.5999C31.4169 26.3643 31.4348 26.0789 31.4395 25.8081C31.4445 25.5184 31.3068 25.2246 31.1354 24.9467C30.7771 24.366 29.8839 24.177 28.767 24.0937C28.1597 24.0483 27.6193 24.2089 27.2021 24.4045C26.4453 24.7593 26.2353 25.6088 25.9574 27.2819C25.8751 27.7774 26.014 28.116 26.2715 28.4383C27.1023 29.4783 29.8685 28.6272 31.3792 28.0905C32.0004 27.8698 32.3917 27.4904 32.6758 27.1963C32.9299 26.9332 33.0173 26.6019 33.0499 26.2882C33.0846 25.9539 32.8721 25.5896 32.5852 25.2297C32.2905 24.8601 31.8518 24.6316 31.4159 24.4395C30.9653 24.2409 30.4523 24.276 29.9661 24.4045C28.5875 24.7689 27.6757 26.4497 27.3163 27.081C27.2314 27.2301 27.2128 27.4128 27.242 27.5405C27.2712 27.6681 27.3728 27.7464 27.5748 27.7858C28.5853 27.9828 29.4798 27.5237 30.2639 27.0815C30.9482 26.6956 31.1118 26.1796 31.1295 25.9335C31.1711 25.3536 29.8684 25.7267 29.3346 25.966C29.0953 26.0733 29.0549 26.4986 29.019 26.907C29.0025 27.0944 29.0594 27.2443 29.3226 27.3223C30.0447 27.5365 30.7516 27.358 31.0623 27.2321C31.2038 27.1747 31.2697 27.0451 31.3129 26.899C31.3561 26.7529 31.3635 26.5722 31.2717 26.4324C31.1798 26.2926 30.9884 26.1989 30.8196 26.1607C30.6508 26.1225 30.5103 26.1426 30.3622 26.1979C30.0506 26.3144 29.1608 27.1941 28.1408 28.3435C27.8239 28.7007 28.0887 28.7361 28.463 28.6279C30.099 28.1547 30.5881 27.5403 30.9784 27.0622C31.0819 26.9355 31.1227 26.7422 31.1193 26.5842C31.1159 26.4262 31.0413 26.292 30.9211 26.1974C29.9163 25.4072 27.4882 25.9775 26.6413 26.2123C26.3166 26.3954 26.0788 26.6048 25.8832 26.8891C25.7723 27.0667 25.6378 27.3119 25.4992 27.5646" stroke="#F5A6E0" stroke-width="5" stroke-linecap="round" stroke-linejoin="round"/>
</svg>
