<svg width="32" height="36" viewBox="0 0 32 36" fill="none" xmlns="http://www.w3.org/2000/svg">
<path d="M13.8619 1.44991C14.4141 -0.484945 17.1562 -0.484939 17.7084 1.44991L19.6845 8.37414C19.9807 9.41205 21.047 10.0277 22.0939 9.76526L29.0785 8.01448C31.0303 7.52526 32.4013 9.89996 31.0017 11.3456L25.9932 16.519C25.2425 17.2945 25.2425 18.5258 25.9932 19.3013L31.0018 24.4747C32.4013 25.9204 31.0303 28.2951 29.0785 27.8058L22.0939 26.0551C21.047 25.7926 19.9807 26.4083 19.6845 27.4462L17.7084 34.3704C17.1562 36.3053 14.4141 36.3053 13.8619 34.3704L11.8859 27.4462C11.5897 26.4083 10.5233 25.7926 9.47637 26.0551L2.49177 27.8058C0.540046 28.2951 -0.83098 25.9204 0.568561 24.4747L5.57707 19.3013C6.32783 18.5258 6.32783 17.2945 5.57707 16.519L0.568557 11.3456C-0.830984 9.89995 0.540052 7.52526 2.49178 8.01448L9.47637 9.76526C10.5233 10.0277 11.5897 9.41205 11.8859 8.37413L13.8619 1.44991Z" fill="#F9F26A"/>
</svg>
