<svg width="55" height="55" viewBox="0 0 55 55" fill="none" xmlns="http://www.w3.org/2000/svg">
<path d="M27.1912 0.188446C27.2102 -0.0577252 27.5711 -0.0577296 27.59 0.188442L28.7445 15.1651C28.7612 15.382 29.0631 15.4201 29.1332 15.2142L33.976 0.995179C34.0556 0.761461 34.4051 0.8512 34.3623 1.09436L31.7559 15.8876C31.7182 16.1018 32.0011 16.2138 32.1202 16.0319L40.347 3.46387C40.4822 3.25729 40.7984 3.43114 40.6965 3.656L34.4931 17.3364C34.4033 17.5344 34.6494 17.7133 34.81 17.5667L45.9039 7.43941C46.0862 7.27295 46.3493 7.51997 46.1946 7.71241L36.7839 19.4202C36.6477 19.5897 36.8417 19.8242 37.0337 19.7221L50.2975 12.672C50.5155 12.5561 50.7089 12.8608 50.5112 13.0087L38.4846 22.0084C38.3105 22.1387 38.44 22.414 38.6514 22.3629L53.2518 18.8328C53.4918 18.7748 53.6033 19.118 53.3751 19.2121L39.4881 24.9381C39.2871 25.021 39.3441 25.32 39.5616 25.323L54.5812 25.5348C54.8281 25.5383 54.8507 25.8985 54.6062 25.9329L39.7316 28.0254C39.5162 28.0557 39.4971 28.3594 39.707 28.4165L54.2021 32.3569C54.4403 32.4216 54.3727 32.7761 54.1273 32.7486L39.1996 31.0763C38.9835 31.0521 38.8894 31.3415 39.0785 31.4489L52.1383 38.8703C52.3529 38.9923 52.1993 39.3188 51.9685 39.2312L37.9256 33.899C37.7223 33.8218 37.5593 34.0787 37.7157 34.2298L48.5195 44.6658C48.6971 44.8374 48.4671 45.1154 48.2653 44.9731L35.9897 36.3162C35.812 36.1908 35.5901 36.3992 35.704 36.5844L43.5731 49.3794C43.7025 49.5897 43.4105 49.8018 43.2505 49.6138L33.5134 38.176C33.3725 38.0104 33.1058 38.157 33.1701 38.3647L37.61 52.7147C37.6829 52.9506 37.3474 53.0834 37.2391 52.8615L30.6525 39.3615C30.5571 39.1661 30.2624 39.2418 30.2729 39.459L31.0047 54.4623C31.0167 54.7089 30.6587 54.7541 30.609 54.5122L27.5865 39.7983C27.5428 39.5853 27.2385 39.5853 27.1947 39.7983L24.1723 54.5122C24.1226 54.7541 23.7646 54.7089 23.7766 54.4623L24.5083 39.459C24.5189 39.2418 24.2242 39.1661 24.1288 39.3615L17.5421 52.8615C17.4338 53.0834 17.0983 52.9506 17.1713 52.7147L21.6112 38.3647C21.6755 38.157 21.4088 38.0104 21.2678 38.176L11.5308 49.6138C11.3707 49.8018 11.0788 49.5897 11.2081 49.3794L19.0772 36.5844C19.1911 36.3992 18.9693 36.1908 18.7916 36.3162L6.51595 44.9731C6.31418 45.1154 6.08415 44.8374 6.26174 44.6659L17.0656 34.2298C17.222 34.0787 17.0589 33.8218 16.8556 33.899L2.81278 39.2312C2.58196 39.3188 2.4283 38.9923 2.64297 38.8703L15.7027 31.4489C15.8918 31.3415 15.7978 31.0521 15.5817 31.0763L0.653919 32.7486C0.408552 32.7761 0.340928 32.4216 0.579183 32.3569L15.0743 28.4165C15.2841 28.3594 15.265 28.0557 15.0497 28.0254L0.175024 25.9329C-0.0694704 25.8985 -0.0468154 25.5383 0.200062 25.5348L15.2197 25.323C15.4371 25.32 15.4942 25.021 15.2931 24.9381L1.40619 19.2121C1.17793 19.118 1.28943 18.7748 1.52942 18.8328L16.1299 22.3629C16.3412 22.414 16.4708 22.1387 16.2967 22.0084L4.27004 13.0087C4.07236 12.8608 4.26572 12.5561 4.48374 12.672L17.7476 19.7221C17.9396 19.8242 18.1336 19.5897 17.9973 19.4202L8.58665 7.71242C8.43197 7.51998 8.69503 7.27294 8.87738 7.43941L19.9712 17.5667C20.1318 17.7133 20.378 17.5344 20.2882 17.3364L14.0848 3.656C13.9828 3.43114 14.299 3.25729 14.4343 3.46387L22.661 16.0319C22.7801 16.2138 23.0631 16.1018 23.0253 15.8876L20.419 1.09436C20.3761 0.851205 20.7257 0.761457 20.8053 0.995176L25.648 15.2142C25.7181 15.4201 26.02 15.382 26.0367 15.1651L27.1912 0.188446Z" fill="#38F30A"/>
</svg>
