<svg width="378" height="38" viewBox="0 0 378 38" fill="none" xmlns="http://www.w3.org/2000/svg">
<rect width="378" height="38" rx="19" fill="#FFE3FF"/>
<path d="M15.134 25V15.514H16.988V19.51H21.362V15.514H23.216V25H21.362V21.148H16.988V25H15.134ZM25.8475 29.158V27.322C26.3995 27.322 26.8435 27.256 27.1795 27.124C27.5275 26.992 27.8155 26.776 28.0435 26.476C28.2715 26.188 28.4935 25.81 28.7095 25.342L24.6055 15.514H26.7835L29.7535 23.2L32.1475 15.514H34.2175L31.6075 23.218C31.4755 23.626 31.3195 24.07 31.1395 24.55C30.9715 25.03 30.7795 25.51 30.5635 25.99C30.3595 26.47 30.1255 26.914 29.8615 27.322C29.5975 27.73 29.3035 28.06 28.9795 28.312C28.7155 28.528 28.4515 28.696 28.1875 28.816C27.9235 28.948 27.6115 29.038 27.2515 29.086C26.8915 29.134 26.4235 29.158 25.8475 29.158ZM40.4289 25V15.514H44.4249C44.8329 15.514 45.2409 15.544 45.6489 15.604C46.0689 15.652 46.4469 15.76 46.7829 15.928C47.1309 16.096 47.4069 16.342 47.6109 16.666C47.8269 16.978 47.9349 17.392 47.9349 17.908C47.9349 18.22 47.8869 18.502 47.7909 18.754C47.6949 19.006 47.5569 19.228 47.3769 19.42C47.2089 19.6 46.9929 19.756 46.7289 19.888C47.3289 20.044 47.7609 20.326 48.0249 20.734C48.3009 21.13 48.4389 21.604 48.4389 22.156C48.4389 22.66 48.3429 23.092 48.1509 23.452C47.9589 23.812 47.7009 24.106 47.3769 24.334C47.0529 24.562 46.6869 24.73 46.2789 24.838C45.8709 24.946 45.4509 25 45.0189 25H40.4289ZM42.3189 23.38H44.6949C45.0309 23.38 45.3369 23.35 45.6129 23.29C45.9009 23.218 46.1289 23.092 46.2969 22.912C46.4769 22.732 46.5669 22.486 46.5669 22.174C46.5669 21.85 46.4949 21.604 46.3509 21.436C46.2069 21.256 46.0209 21.13 45.7929 21.058C45.5649 20.986 45.3189 20.944 45.0549 20.932C44.7909 20.908 44.5329 20.896 44.2809 20.896H42.3189V23.38ZM42.3189 19.492H43.7229C43.9389 19.492 44.1849 19.48 44.4609 19.456C44.7369 19.42 45.0009 19.36 45.2529 19.276C45.5169 19.192 45.7269 19.072 45.8829 18.916C46.0509 18.748 46.1349 18.52 46.1349 18.232C46.1349 17.848 46.0269 17.584 45.8109 17.44C45.6069 17.284 45.3609 17.194 45.0729 17.17C44.7849 17.134 44.5029 17.116 44.2269 17.116H42.3189V19.492ZM54.5001 25.108C53.5041 25.108 52.6701 24.904 51.9981 24.496C51.3381 24.088 50.8401 23.524 50.5041 22.804C50.1801 22.072 50.0181 21.232 50.0181 20.284C50.0181 19.348 50.1861 18.514 50.5221 17.782C50.8701 17.038 51.3861 16.456 52.0701 16.036C52.7661 15.604 53.6241 15.388 54.6441 15.388C55.3401 15.388 55.9581 15.508 56.4981 15.748C57.0381 15.976 57.4761 16.318 57.8121 16.774C58.1601 17.218 58.3881 17.776 58.4961 18.448H56.6421C56.4861 17.956 56.2221 17.602 55.8501 17.386C55.4901 17.17 55.0641 17.062 54.5721 17.062C53.9121 17.062 53.3841 17.218 52.9881 17.53C52.5921 17.842 52.3041 18.244 52.1241 18.736C51.9561 19.228 51.8721 19.744 51.8721 20.284C51.8721 20.848 51.9621 21.37 52.1421 21.85C52.3341 22.33 52.6221 22.72 53.0061 23.02C53.4021 23.308 53.9181 23.452 54.5541 23.452C55.0341 23.452 55.4781 23.35 55.8861 23.146C56.2941 22.93 56.5581 22.57 56.6781 22.066H58.5861C58.4781 22.762 58.2261 23.338 57.8301 23.794C57.4341 24.238 56.9421 24.568 56.3541 24.784C55.7781 25 55.1601 25.108 54.5001 25.108ZM64.5561 25.108C63.5601 25.108 62.7261 24.904 62.0541 24.496C61.3821 24.088 60.8721 23.524 60.5241 22.804C60.1881 22.072 60.0201 21.232 60.0201 20.284C60.0201 19.324 60.1941 18.478 60.5421 17.746C60.9021 17.014 61.4181 16.438 62.0901 16.018C62.7741 15.598 63.5961 15.388 64.5561 15.388C65.2641 15.388 65.8821 15.52 66.4101 15.784C66.9501 16.036 67.4001 16.39 67.7601 16.846C68.1321 17.29 68.4021 17.794 68.5701 18.358C68.7381 18.922 68.8161 19.516 68.8041 20.14C68.7921 20.272 68.7801 20.398 68.7681 20.518C68.7681 20.638 68.7621 20.764 68.7501 20.896H61.8921C61.9281 21.376 62.0481 21.814 62.2521 22.21C62.4681 22.606 62.7681 22.924 63.1521 23.164C63.5361 23.392 64.0101 23.506 64.5741 23.506C64.8861 23.506 65.1861 23.47 65.4741 23.398C65.7741 23.314 66.0381 23.188 66.2661 23.02C66.5061 22.84 66.6741 22.612 66.7701 22.336H68.6421C68.4861 22.972 68.2041 23.5 67.7961 23.92C67.4001 24.328 66.9141 24.628 66.3381 24.82C65.7741 25.012 65.1801 25.108 64.5561 25.108ZM61.9281 19.42H66.9681C66.9561 18.952 66.8481 18.538 66.6441 18.178C66.4401 17.806 66.1581 17.518 65.7981 17.314C65.4381 17.098 65.0061 16.99 64.5021 16.99C63.9501 16.99 63.4881 17.104 63.1161 17.332C62.7561 17.56 62.4741 17.86 62.2701 18.232C62.0781 18.592 61.9641 18.988 61.9281 19.42ZM66.5001 14.2C66.1761 14.2 65.9001 14.098 65.6721 13.894C65.4561 13.69 65.3481 13.414 65.3481 13.066C65.3481 12.718 65.4561 12.442 65.6721 12.238C65.9001 12.022 66.1761 11.914 66.5001 11.914C66.8241 11.914 67.1001 12.022 67.3281 12.238C67.5561 12.442 67.6701 12.718 67.6701 13.066C67.6701 13.414 67.5561 13.69 67.3281 13.894C67.1001 14.098 66.8241 14.2 66.5001 14.2ZM62.3241 14.2C62.0001 14.2 61.7241 14.098 61.4961 13.894C61.2681 13.69 61.1541 13.414 61.1541 13.066C61.1541 12.718 61.2681 12.442 61.4961 12.238C61.7241 12.022 62.0001 11.914 62.3241 11.914C62.6481 11.914 62.9241 12.022 63.1521 12.238C63.3801 12.442 63.4941 12.718 63.4941 13.066C63.4941 13.414 63.3801 13.69 63.1521 13.894C62.9361 14.098 62.6601 14.2 62.3241 14.2ZM71.238 27.376L70.716 26.602C70.884 26.494 71.052 26.35 71.22 26.17C71.4 26.002 71.556 25.816 71.688 25.612C71.82 25.42 71.916 25.234 71.976 25.054C71.64 25.03 71.364 24.916 71.148 24.712C70.932 24.508 70.824 24.232 70.824 23.884C70.836 23.512 70.962 23.224 71.202 23.02C71.454 22.804 71.736 22.696 72.048 22.696C72.456 22.696 72.78 22.846 73.02 23.146C73.26 23.434 73.38 23.83 73.38 24.334C73.38 24.766 73.278 25.192 73.074 25.612C72.87 26.032 72.606 26.398 72.282 26.71C71.958 27.022 71.61 27.244 71.238 27.376ZM79.9797 25V15.514H88.0977V25H86.2437V17.17H81.8337V25H79.9797ZM90.3684 28.456V15.514H92.1324L92.2224 16.882C92.5584 16.378 93.0024 16.006 93.5544 15.766C94.1064 15.514 94.6944 15.388 95.3184 15.388C96.2544 15.388 97.0284 15.604 97.6404 16.036C98.2524 16.468 98.7084 17.05 99.0084 17.782C99.3084 18.514 99.4584 19.342 99.4584 20.266C99.4584 21.19 99.3024 22.018 98.9904 22.75C98.6904 23.482 98.2224 24.058 97.5864 24.478C96.9624 24.898 96.1644 25.108 95.1924 25.108C94.7244 25.108 94.3044 25.06 93.9324 24.964C93.5604 24.868 93.2364 24.73 92.9604 24.55C92.6844 24.358 92.4384 24.154 92.2224 23.938V28.456H90.3684ZM94.9764 23.452C95.6244 23.452 96.1404 23.308 96.5244 23.02C96.9084 22.72 97.1844 22.33 97.3524 21.85C97.5204 21.37 97.6044 20.848 97.6044 20.284C97.6044 19.696 97.5144 19.162 97.3344 18.682C97.1664 18.19 96.8844 17.8 96.4884 17.512C96.1044 17.212 95.5884 17.062 94.9404 17.062C94.3524 17.062 93.8544 17.212 93.4464 17.512C93.0384 17.8 92.7264 18.19 92.5104 18.682C92.3064 19.174 92.2044 19.708 92.2044 20.284C92.2044 20.872 92.3004 21.412 92.4924 21.904C92.6964 22.384 93.0024 22.762 93.4104 23.038C93.8304 23.314 94.3524 23.452 94.9764 23.452ZM105.478 25.108C104.482 25.108 103.648 24.904 102.976 24.496C102.304 24.088 101.794 23.524 101.446 22.804C101.11 22.072 100.942 21.232 100.942 20.284C100.942 19.324 101.116 18.478 101.464 17.746C101.824 17.014 102.34 16.438 103.012 16.018C103.696 15.598 104.518 15.388 105.478 15.388C106.186 15.388 106.804 15.52 107.332 15.784C107.872 16.036 108.322 16.39 108.682 16.846C109.054 17.29 109.324 17.794 109.492 18.358C109.66 18.922 109.738 19.516 109.726 20.14C109.714 20.272 109.702 20.398 109.69 20.518C109.69 20.638 109.684 20.764 109.672 20.896H102.814C102.85 21.376 102.97 21.814 103.174 22.21C103.39 22.606 103.69 22.924 104.074 23.164C104.458 23.392 104.932 23.506 105.496 23.506C105.808 23.506 106.108 23.47 106.396 23.398C106.696 23.314 106.96 23.188 107.188 23.02C107.428 22.84 107.596 22.612 107.692 22.336H109.564C109.408 22.972 109.126 23.5 108.718 23.92C108.322 24.328 107.836 24.628 107.26 24.82C106.696 25.012 106.102 25.108 105.478 25.108ZM102.85 19.42H107.89C107.878 18.952 107.77 18.538 107.566 18.178C107.362 17.806 107.08 17.518 106.72 17.314C106.36 17.098 105.928 16.99 105.424 16.99C104.872 16.99 104.41 17.104 104.038 17.332C103.678 17.56 103.396 17.86 103.192 18.232C103 18.592 102.886 18.988 102.85 19.42ZM110.635 27.826V23.362C110.971 23.362 111.241 23.272 111.445 23.092C111.649 22.912 111.811 22.678 111.931 22.39C112.051 22.102 112.141 21.784 112.201 21.436C112.273 21.076 112.333 20.728 112.381 20.392C112.441 19.852 112.477 19.306 112.489 18.754C112.513 18.19 112.525 17.722 112.525 17.35C112.537 17.05 112.543 16.75 112.543 16.45C112.543 16.138 112.543 15.826 112.543 15.514H119.581V23.362H120.805V27.826H118.987V25H112.453V27.826H110.635ZM113.407 23.362H117.709V17.17H114.253C114.253 17.638 114.247 18.154 114.235 18.718C114.223 19.282 114.199 19.816 114.163 20.32C114.139 20.608 114.109 20.932 114.073 21.292C114.037 21.652 113.971 22.012 113.875 22.372C113.779 22.732 113.623 23.062 113.407 23.362ZM121.796 25.018V23.362C122.048 23.362 122.264 23.308 122.444 23.2C122.636 23.08 122.804 22.912 122.948 22.696C123.104 22.456 123.224 22.12 123.308 21.688C123.392 21.256 123.452 20.806 123.488 20.338C123.536 19.774 123.566 19.216 123.578 18.664C123.602 18.112 123.62 17.572 123.632 17.044C123.656 16.516 123.668 16.006 123.668 15.514H130.526V25H128.672V17.17H125.432C125.42 17.566 125.402 17.98 125.378 18.412C125.366 18.844 125.348 19.276 125.324 19.708C125.3 20.128 125.27 20.548 125.234 20.968C125.21 21.448 125.144 21.958 125.036 22.498C124.94 23.038 124.754 23.524 124.478 23.956C124.202 24.376 123.86 24.658 123.452 24.802C123.056 24.946 122.504 25.018 121.796 25.018ZM135.79 25.108C135.37 25.108 134.962 25.054 134.566 24.946C134.17 24.826 133.816 24.652 133.504 24.424C133.192 24.184 132.94 23.89 132.748 23.542C132.568 23.182 132.478 22.762 132.478 22.282C132.478 21.706 132.586 21.232 132.802 20.86C133.03 20.476 133.33 20.182 133.702 19.978C134.074 19.762 134.5 19.612 134.98 19.528C135.472 19.432 135.982 19.384 136.51 19.384H138.832C138.832 18.916 138.76 18.508 138.616 18.16C138.472 17.8 138.244 17.524 137.932 17.332C137.632 17.128 137.23 17.026 136.726 17.026C136.426 17.026 136.138 17.062 135.862 17.134C135.598 17.194 135.37 17.296 135.178 17.44C134.986 17.584 134.854 17.776 134.782 18.016H132.838C132.91 17.56 133.072 17.17 133.324 16.846C133.576 16.51 133.888 16.234 134.26 16.018C134.632 15.802 135.028 15.646 135.448 15.55C135.88 15.442 136.318 15.388 136.762 15.388C137.674 15.388 138.412 15.568 138.976 15.928C139.552 16.288 139.972 16.804 140.236 17.476C140.5 18.148 140.632 18.946 140.632 19.87V25H139.03L138.958 23.83C138.682 24.178 138.364 24.448 138.004 24.64C137.656 24.82 137.29 24.94 136.906 25C136.522 25.072 136.15 25.108 135.79 25.108ZM136.114 23.542C136.666 23.542 137.146 23.452 137.554 23.272C137.962 23.08 138.274 22.81 138.49 22.462C138.718 22.102 138.832 21.676 138.832 21.184V20.806H137.14C136.792 20.806 136.45 20.818 136.114 20.842C135.778 20.854 135.472 20.902 135.196 20.986C134.932 21.058 134.722 21.184 134.566 21.364C134.41 21.544 134.332 21.802 134.332 22.138C134.332 22.462 134.416 22.726 134.584 22.93C134.752 23.134 134.974 23.29 135.25 23.398C135.526 23.494 135.814 23.542 136.114 23.542ZM142.857 25V15.514H149.499V17.17H144.711V25H142.857ZM153.72 25.108C153.3 25.108 152.892 25.054 152.496 24.946C152.1 24.826 151.746 24.652 151.434 24.424C151.122 24.184 150.87 23.89 150.678 23.542C150.498 23.182 150.408 22.762 150.408 22.282C150.408 21.706 150.516 21.232 150.732 20.86C150.96 20.476 151.26 20.182 151.632 19.978C152.004 19.762 152.43 19.612 152.91 19.528C153.402 19.432 153.912 19.384 154.44 19.384H156.762C156.762 18.916 156.69 18.508 156.546 18.16C156.402 17.8 156.174 17.524 155.862 17.332C155.562 17.128 155.16 17.026 154.656 17.026C154.356 17.026 154.068 17.062 153.792 17.134C153.528 17.194 153.3 17.296 153.108 17.44C152.916 17.584 152.784 17.776 152.712 18.016H150.768C150.84 17.56 151.002 17.17 151.254 16.846C151.506 16.51 151.818 16.234 152.19 16.018C152.562 15.802 152.958 15.646 153.378 15.55C153.81 15.442 154.248 15.388 154.692 15.388C155.604 15.388 156.342 15.568 156.906 15.928C157.482 16.288 157.902 16.804 158.166 17.476C158.43 18.148 158.562 18.946 158.562 19.87V25H156.96L156.888 23.83C156.612 24.178 156.294 24.448 155.934 24.64C155.586 24.82 155.22 24.94 154.836 25C154.452 25.072 154.08 25.108 153.72 25.108ZM154.044 23.542C154.596 23.542 155.076 23.452 155.484 23.272C155.892 23.08 156.204 22.81 156.42 22.462C156.648 22.102 156.762 21.676 156.762 21.184V20.806H155.07C154.722 20.806 154.38 20.818 154.044 20.842C153.708 20.854 153.402 20.902 153.126 20.986C152.862 21.058 152.652 21.184 152.496 21.364C152.34 21.544 152.262 21.802 152.262 22.138C152.262 22.462 152.346 22.726 152.514 22.93C152.682 23.134 152.904 23.29 153.18 23.398C153.456 23.494 153.744 23.542 154.044 23.542ZM168.742 25.108C167.386 25.108 166.342 24.742 165.61 24.01C164.878 23.266 164.452 22.288 164.332 21.076H162.64V25H160.786V15.514H162.64V19.438H164.332C164.416 18.646 164.632 17.944 164.98 17.332C165.328 16.72 165.814 16.246 166.438 15.91C167.074 15.562 167.842 15.388 168.742 15.388C169.726 15.388 170.554 15.598 171.226 16.018C171.91 16.426 172.42 16.996 172.756 17.728C173.104 18.448 173.278 19.294 173.278 20.266C173.278 21.214 173.11 22.054 172.774 22.786C172.438 23.518 171.934 24.088 171.262 24.496C170.59 24.904 169.75 25.108 168.742 25.108ZM168.724 23.452C169.372 23.452 169.888 23.308 170.272 23.02C170.668 22.732 170.956 22.348 171.136 21.868C171.328 21.376 171.424 20.842 171.424 20.266C171.424 19.69 171.328 19.162 171.136 18.682C170.956 18.19 170.668 17.8 170.272 17.512C169.888 17.212 169.372 17.062 168.724 17.062C168.1 17.062 167.59 17.206 167.194 17.494C166.798 17.782 166.51 18.172 166.33 18.664C166.162 19.144 166.078 19.678 166.078 20.266C166.078 20.842 166.162 21.376 166.33 21.868C166.51 22.348 166.798 22.732 167.194 23.02C167.59 23.308 168.1 23.452 168.724 23.452ZM180.052 25V15.514H188.17V25H186.316V17.17H181.906V25H180.052ZM194.617 25.108C193.621 25.108 192.787 24.904 192.115 24.496C191.443 24.088 190.933 23.524 190.585 22.804C190.249 22.072 190.081 21.232 190.081 20.284C190.081 19.324 190.255 18.478 190.603 17.746C190.963 17.014 191.479 16.438 192.151 16.018C192.835 15.598 193.657 15.388 194.617 15.388C195.325 15.388 195.943 15.52 196.471 15.784C197.011 16.036 197.461 16.39 197.821 16.846C198.193 17.29 198.463 17.794 198.631 18.358C198.799 18.922 198.877 19.516 198.865 20.14C198.853 20.272 198.841 20.398 198.829 20.518C198.829 20.638 198.823 20.764 198.811 20.896H191.953C191.989 21.376 192.109 21.814 192.313 22.21C192.529 22.606 192.829 22.924 193.213 23.164C193.597 23.392 194.071 23.506 194.635 23.506C194.947 23.506 195.247 23.47 195.535 23.398C195.835 23.314 196.099 23.188 196.327 23.02C196.567 22.84 196.735 22.612 196.831 22.336H198.703C198.547 22.972 198.265 23.5 197.857 23.92C197.461 24.328 196.975 24.628 196.399 24.82C195.835 25.012 195.241 25.108 194.617 25.108ZM191.989 19.42H197.029C197.017 18.952 196.909 18.538 196.705 18.178C196.501 17.806 196.219 17.518 195.859 17.314C195.499 17.098 195.067 16.99 194.563 16.99C194.011 16.99 193.549 17.104 193.177 17.332C192.817 17.56 192.535 17.86 192.331 18.232C192.139 18.592 192.025 18.988 191.989 19.42ZM200.777 28.456V15.514H202.541L202.631 16.882C202.967 16.378 203.411 16.006 203.963 15.766C204.515 15.514 205.103 15.388 205.727 15.388C206.663 15.388 207.437 15.604 208.049 16.036C208.661 16.468 209.117 17.05 209.417 17.782C209.717 18.514 209.867 19.342 209.867 20.266C209.867 21.19 209.711 22.018 209.399 22.75C209.099 23.482 208.631 24.058 207.995 24.478C207.371 24.898 206.573 25.108 205.601 25.108C205.133 25.108 204.713 25.06 204.341 24.964C203.969 24.868 203.645 24.73 203.369 24.55C203.093 24.358 202.847 24.154 202.631 23.938V28.456H200.777ZM205.385 23.452C206.033 23.452 206.549 23.308 206.933 23.02C207.317 22.72 207.593 22.33 207.761 21.85C207.929 21.37 208.013 20.848 208.013 20.284C208.013 19.696 207.923 19.162 207.743 18.682C207.575 18.19 207.293 17.8 206.897 17.512C206.513 17.212 205.997 17.062 205.349 17.062C204.761 17.062 204.263 17.212 203.855 17.512C203.447 17.8 203.135 18.19 202.919 18.682C202.715 19.174 202.613 19.708 202.613 20.284C202.613 20.872 202.709 21.412 202.901 21.904C203.105 22.384 203.411 22.762 203.819 23.038C204.239 23.314 204.761 23.452 205.385 23.452ZM215.886 25.108C214.89 25.108 214.056 24.904 213.384 24.496C212.712 24.088 212.202 23.524 211.854 22.804C211.518 22.072 211.35 21.232 211.35 20.284C211.35 19.324 211.524 18.478 211.872 17.746C212.232 17.014 212.748 16.438 213.42 16.018C214.104 15.598 214.926 15.388 215.886 15.388C216.594 15.388 217.212 15.52 217.74 15.784C218.28 16.036 218.73 16.39 219.09 16.846C219.462 17.29 219.732 17.794 219.9 18.358C220.068 18.922 220.146 19.516 220.134 20.14C220.122 20.272 220.11 20.398 220.098 20.518C220.098 20.638 220.092 20.764 220.08 20.896H213.222C213.258 21.376 213.378 21.814 213.582 22.21C213.798 22.606 214.098 22.924 214.482 23.164C214.866 23.392 215.34 23.506 215.904 23.506C216.216 23.506 216.516 23.47 216.804 23.398C217.104 23.314 217.368 23.188 217.596 23.02C217.836 22.84 218.004 22.612 218.1 22.336H219.972C219.816 22.972 219.534 23.5 219.126 23.92C218.73 24.328 218.244 24.628 217.668 24.82C217.104 25.012 216.51 25.108 215.886 25.108ZM213.258 19.42H218.298C218.286 18.952 218.178 18.538 217.974 18.178C217.77 17.806 217.488 17.518 217.128 17.314C216.768 17.098 216.336 16.99 215.832 16.99C215.28 16.99 214.818 17.104 214.446 17.332C214.086 17.56 213.804 17.86 213.6 18.232C213.408 18.592 213.294 18.988 213.258 19.42ZM220.934 25L224.3 20.158L221.096 15.514H223.31L225.542 18.916L227.702 15.514H229.844L226.658 20.212L230.078 25H227.882L225.434 21.544L223.022 25H220.934ZM235.469 25.108C234.485 25.108 233.651 24.91 232.967 24.514C232.283 24.106 231.761 23.536 231.401 22.804C231.053 22.072 230.879 21.226 230.879 20.266C230.879 19.294 231.053 18.448 231.401 17.728C231.761 16.996 232.283 16.426 232.967 16.018C233.651 15.598 234.491 15.388 235.487 15.388C236.471 15.388 237.305 15.598 237.989 16.018C238.673 16.426 239.189 16.996 239.537 17.728C239.885 18.46 240.059 19.312 240.059 20.284C240.059 21.232 239.879 22.072 239.519 22.804C239.171 23.536 238.655 24.106 237.971 24.514C237.299 24.91 236.465 25.108 235.469 25.108ZM235.469 23.452C236.117 23.452 236.639 23.308 237.035 23.02C237.443 22.732 237.743 22.348 237.935 21.868C238.127 21.388 238.223 20.86 238.223 20.284C238.223 19.708 238.127 19.18 237.935 18.7C237.743 18.208 237.443 17.818 237.035 17.53C236.639 17.23 236.117 17.08 235.469 17.08C234.833 17.08 234.311 17.23 233.903 17.53C233.495 17.818 233.195 18.202 233.003 18.682C232.823 19.162 232.733 19.696 232.733 20.284C232.733 20.86 232.823 21.388 233.003 21.868C233.195 22.348 233.495 22.732 233.903 23.02C234.311 23.308 234.833 23.452 235.469 23.452ZM240.959 27.826V23.362C241.295 23.362 241.565 23.272 241.769 23.092C241.973 22.912 242.135 22.678 242.255 22.39C242.375 22.102 242.465 21.784 242.525 21.436C242.597 21.076 242.657 20.728 242.705 20.392C242.765 19.852 242.801 19.306 242.813 18.754C242.837 18.19 242.849 17.722 242.849 17.35C242.861 17.05 242.867 16.75 242.867 16.45C242.867 16.138 242.867 15.826 242.867 15.514H249.905V23.362H251.129V27.826H249.311V25H242.777V27.826H240.959ZM243.731 23.362H248.033V17.17H244.577C244.577 17.638 244.571 18.154 244.559 18.718C244.547 19.282 244.523 19.816 244.487 20.32C244.463 20.608 244.433 20.932 244.397 21.292C244.361 21.652 244.295 22.012 244.199 22.372C244.103 22.732 243.947 23.062 243.731 23.362ZM252.597 25V15.514H254.451V22.228C254.535 22.084 254.643 21.928 254.775 21.76C254.907 21.58 255.009 21.436 255.081 21.328L259.419 15.514H261.147V25H259.293V18.322C259.197 18.478 259.095 18.634 258.987 18.79C258.879 18.934 258.777 19.066 258.681 19.186L254.343 25H252.597ZM265.639 25V17.17H262.435V15.514H270.697V17.17H267.493V25H265.639ZM271.986 25V15.514H273.876V18.934H275.91C276.474 18.934 276.978 18.982 277.422 19.078C277.878 19.174 278.268 19.336 278.592 19.564C278.928 19.78 279.186 20.08 279.366 20.464C279.546 20.836 279.636 21.31 279.636 21.886C279.636 22.426 279.54 22.894 279.348 23.29C279.156 23.686 278.886 24.01 278.538 24.262C278.202 24.514 277.8 24.7 277.332 24.82C276.876 24.94 276.378 25 275.838 25H271.986ZM273.876 23.38H274.902C275.274 23.38 275.628 23.368 275.964 23.344C276.3 23.32 276.606 23.266 276.882 23.182C277.158 23.086 277.374 22.942 277.53 22.75C277.698 22.546 277.782 22.276 277.782 21.94C277.782 21.604 277.716 21.346 277.584 21.166C277.452 20.986 277.278 20.848 277.062 20.752C276.858 20.656 276.63 20.596 276.378 20.572C276.138 20.548 275.886 20.536 275.622 20.536H273.876V23.38ZM286.435 25V15.514H288.289V19.456H289.873L292.519 15.514H294.643L291.529 20.014L294.823 25H292.663L290.053 21.094H288.289V25H286.435ZM301.025 25V15.514H302.879V19.456H304.463L307.109 15.514H309.233L306.119 20.014L309.413 25H307.253L304.643 21.094H302.879V25H301.025ZM314.675 25.108C313.679 25.108 312.845 24.904 312.173 24.496C311.501 24.088 310.991 23.524 310.643 22.804C310.307 22.072 310.139 21.232 310.139 20.284C310.139 19.324 310.313 18.478 310.661 17.746C311.021 17.014 311.537 16.438 312.209 16.018C312.893 15.598 313.715 15.388 314.675 15.388C315.383 15.388 316.001 15.52 316.529 15.784C317.069 16.036 317.519 16.39 317.879 16.846C318.251 17.29 318.521 17.794 318.689 18.358C318.857 18.922 318.935 19.516 318.923 20.14C318.911 20.272 318.899 20.398 318.887 20.518C318.887 20.638 318.881 20.764 318.869 20.896H312.011C312.047 21.376 312.167 21.814 312.371 22.21C312.587 22.606 312.887 22.924 313.271 23.164C313.655 23.392 314.129 23.506 314.693 23.506C315.005 23.506 315.305 23.47 315.593 23.398C315.893 23.314 316.157 23.188 316.385 23.02C316.625 22.84 316.793 22.612 316.889 22.336H318.761C318.605 22.972 318.323 23.5 317.915 23.92C317.519 24.328 317.033 24.628 316.457 24.82C315.893 25.012 315.299 25.108 314.675 25.108ZM312.047 19.42H317.087C317.075 18.952 316.967 18.538 316.763 18.178C316.559 17.806 316.277 17.518 315.917 17.314C315.557 17.098 315.125 16.99 314.621 16.99C314.069 16.99 313.607 17.104 313.235 17.332C312.875 17.56 312.593 17.86 312.389 18.232C312.197 18.592 312.083 18.988 312.047 19.42ZM320.835 25V15.514H322.689V22.228C322.773 22.084 322.881 21.928 323.013 21.76C323.145 21.58 323.247 21.436 323.319 21.328L327.657 15.514H329.385V25H327.531V18.322C327.435 18.478 327.333 18.634 327.225 18.79C327.117 18.934 327.015 19.066 326.919 19.186L322.581 25H320.835ZM325.245 14.362C324.261 14.362 323.487 14.146 322.923 13.714C322.371 13.27 322.089 12.616 322.077 11.752H323.697C323.721 12.184 323.871 12.496 324.147 12.688C324.423 12.88 324.795 12.976 325.263 12.976C325.731 12.976 326.103 12.88 326.379 12.688C326.655 12.496 326.805 12.184 326.829 11.752H328.449C328.449 12.316 328.317 12.796 328.053 13.192C327.789 13.576 327.417 13.87 326.937 14.074C326.469 14.266 325.905 14.362 325.245 14.362ZM335.768 25.108C334.772 25.108 333.938 24.904 333.266 24.496C332.606 24.088 332.108 23.524 331.772 22.804C331.448 22.072 331.286 21.232 331.286 20.284C331.286 19.348 331.454 18.514 331.79 17.782C332.138 17.038 332.654 16.456 333.338 16.036C334.034 15.604 334.892 15.388 335.912 15.388C336.608 15.388 337.226 15.508 337.766 15.748C338.306 15.976 338.744 16.318 339.08 16.774C339.428 17.218 339.656 17.776 339.764 18.448H337.91C337.754 17.956 337.49 17.602 337.118 17.386C336.758 17.17 336.332 17.062 335.84 17.062C335.18 17.062 334.652 17.218 334.256 17.53C333.86 17.842 333.572 18.244 333.392 18.736C333.224 19.228 333.14 19.744 333.14 20.284C333.14 20.848 333.23 21.37 333.41 21.85C333.602 22.33 333.89 22.72 334.274 23.02C334.67 23.308 335.186 23.452 335.822 23.452C336.302 23.452 336.746 23.35 337.154 23.146C337.562 22.93 337.826 22.57 337.946 22.066H339.854C339.746 22.762 339.494 23.338 339.098 23.794C338.702 24.238 338.21 24.568 337.622 24.784C337.046 25 336.428 25.108 335.768 25.108ZM344.636 25.108C344.216 25.108 343.808 25.054 343.412 24.946C343.016 24.826 342.662 24.652 342.35 24.424C342.038 24.184 341.786 23.89 341.594 23.542C341.414 23.182 341.324 22.762 341.324 22.282C341.324 21.706 341.432 21.232 341.648 20.86C341.876 20.476 342.176 20.182 342.548 19.978C342.92 19.762 343.346 19.612 343.826 19.528C344.318 19.432 344.828 19.384 345.356 19.384H347.678C347.678 18.916 347.606 18.508 347.462 18.16C347.318 17.8 347.09 17.524 346.778 17.332C346.478 17.128 346.076 17.026 345.572 17.026C345.272 17.026 344.984 17.062 344.708 17.134C344.444 17.194 344.216 17.296 344.024 17.44C343.832 17.584 343.7 17.776 343.628 18.016H341.684C341.756 17.56 341.918 17.17 342.17 16.846C342.422 16.51 342.734 16.234 343.106 16.018C343.478 15.802 343.874 15.646 344.294 15.55C344.726 15.442 345.164 15.388 345.608 15.388C346.52 15.388 347.258 15.568 347.822 15.928C348.398 16.288 348.818 16.804 349.082 17.476C349.346 18.148 349.478 18.946 349.478 19.87V25H347.876L347.804 23.83C347.528 24.178 347.21 24.448 346.85 24.64C346.502 24.82 346.136 24.94 345.752 25C345.368 25.072 344.996 25.108 344.636 25.108ZM344.96 23.542C345.512 23.542 345.992 23.452 346.4 23.272C346.808 23.08 347.12 22.81 347.336 22.462C347.564 22.102 347.678 21.676 347.678 21.184V20.806H345.986C345.638 20.806 345.296 20.818 344.96 20.842C344.624 20.854 344.318 20.902 344.042 20.986C343.778 21.058 343.568 21.184 343.412 21.364C343.256 21.544 343.178 21.802 343.178 22.138C343.178 22.462 343.262 22.726 343.43 22.93C343.598 23.134 343.82 23.29 344.096 23.398C344.372 23.494 344.66 23.542 344.96 23.542ZM351.702 25V15.514H354.078L356.994 20.05L359.856 15.514H362.196V25H360.342V17.764L357.228 22.732H356.688L353.556 17.746V25H351.702Z" fill="#EB30FC"/>
</svg>
